<svg id="Laag_1" data-name="Laag 1" xmlns="http://www.w3.org/2000/svg" viewBox="0 0 788.16 1063.58"><defs><style>.cls-1{fill:#fff;}</style></defs><path class="cls-1" d="M578.13,1060.12c31-69,61.28-138.22,81.62-211.32,14.31-51.44,25.12-103.49,22.76-157.21-2.51-56.93-18.86-108-68.45-142.31-37-25.64-79.6-34.34-123.62-35.3C405.86,512.14,325,530.16,247,562.25c-1.79.74-3.69,1.21-7,2.28,5.84-40.48,11.51-79.84,17.22-119.2q22.32-154,44.67-308C308,94.8,314.4,52.34,320.32,9.82c.94-6.76,3-9.81,10.37-9.77q71.43.36,142.87,0c8.37,0,10.46,2.75,9.17,10.79q-22.26,139.27-44.11,278.62c-2.63,16.66-4.69,33.44-8,50-2,9.84.88,12.1,10.5,11.8,46.13-1.46,92.07.63,137.67,8.56,56.82,9.88,109.64,28.59,153.42,67.85,6.22,5.56,6.22,5.56,12.11,12.43,52.28,66.78,52.79,142.45,36.25,220.21C762.8,743.7,729,821.09,686.85,895c-7.27,1.29-5.84,7.43-6.81,12.23-28.79,54.65-62.48,106.21-98.79,156.1C578.44,1064,576.85,1063.42,578.13,1060.12Z" transform="translate(-2.01 0)"/><path class="cls-1" d="M541.67,566.05c-42.31-14.18-85.79-13.75-128.95-6.3-118.51,20.46-222.91,68.53-304.46,159.74C90.6,737.88,73.06,756.37,59,777.82l-2.84,3.54h0c-20.59,24.29-36.49,51.53-50.94,79.79-5.72,11.17-4.46,14.2,8.84,14.1q105.95-.84,211.89,0c12.13.09,18.69-3.07,24.45-14.72C282.81,795.11,321.33,733.8,377.89,686c53.73-45.42,114.41-68.47,185.76-55.37,21.88,4,42.08,12.85,63.63,23.56C613.2,608.17,584.17,580.3,541.67,566.05Z" transform="translate(-2.01 0)"/><path class="cls-1" d="M680,907.26c-1.88-4.5-5.68-9.2-1.38-13.8,2.39-2.56,5.45.78,8.19,1.57A23.83,23.83,0,0,1,680,907.26Z" transform="translate(-2.01 0)"/></svg>