<svg xmlns="http://www.w3.org/2000/svg" viewBox="0 0 1716.89 481.64"><g id="Laag_1" data-name="Laag 1"><path d="M308.13,411.29A430.22,430.22,0,0,1,261.7,481.6c4.21-9.36,8.57-18.66,12.6-28.1C287.74,422,299.72,390,306,356.25c3.81-20.6,5.66-41.3,1-62.1-7.14-32-28.22-52.42-60.38-58.46-38.26-7.19-75.23-.41-111.78,10.41-8.8,2.6-17.34,6.08-26.43,9.3,3-20.71,6-41.25,9-61.78q6.66-46,13.29-92,5.88-40.5,11.87-81c.74-5,1.63-10.06,2-15.12.32-4,1.69-5.58,6-5.54q31.77.3,63.54,0c4.37,0,4.64,1.37,4,5.35-7.92,49.53-15.49,99.11-23.49,148.63-.78,4.82.4,5.25,4.54,5.17,27.48-.58,54.79,1,81.47,8.2,24,6.53,45.53,17.24,60.57,38,13.84,19.11,17.61,41,16.34,63.92-2.48,44.91-19.79,85.17-39.73,124.56-2.08,4.09-4.5,8-6.75,12C308.2,406.6,308.52,409.14,308.13,411.29Z" transform="translate(-0.05 0.04)" style="fill:#009de0"/><path d="M1097.83,224c17-31.51,62.71-32.9,79.43,4.85l8.06-12.06c10.58-15.84,26.55-17.64,43.33-15.58,16.26,2,26.69,12.18,32.72,26.93a67.55,67.55,0,0,1,5.11,25.76q0,40.39.13,80.8c0,3.92-.51,5.87-5.17,5.71-10-.36-20-.32-30,0-4.42.14-5.43-1.42-5.4-5.59.19-23.68.12-47.36.08-71.05,0-3.71.19-7.51-.51-11.11-2.25-11.55-11.39-18.12-23.34-17.21a21,21,0,0,0-19.55,20.76c-.34,25.54-.44,51.09-.1,76.62.08,6.17-1.4,8-7.6,7.63-9-.57-18.15-.38-27.22,0-4.54.17-5.83-1.19-5.78-5.77.23-23.69.09-47.37.11-71.06,0-4.42-.1-8.81-1.39-13.1-3-9.88-10.9-15.47-21.52-15.14a21.12,21.12,0,0,0-20.29,17,69.48,69.48,0,0,0-1,12.47c-.12,23-.32,46,.06,69,.09,5.82-1.86,6.91-7,6.71-9.3-.36-18.62-.23-27.92-.05-3.63.07-5.33-.61-5.32-4.84q.21-63.39,0-126.78c0-3.56.55-5.47,4.89-5.34,10.23.31,20.48.23,30.71,0,3.8-.09,4.77,1.37,4.61,4.87C1097.66,213.55,1097.83,218.8,1097.83,224Z" transform="translate(-0.05 0.04)" style="fill:#1d53a0"/><path d="M284.26,296.75c-46.6-25-91.2-9.05-123.12,23.36-20.63,20.95-35.9,45.36-48.85,71.4-2.06,4.14-4.43,5.53-9,5.5q-48.87-.33-97.75,0c-6,.05-6.62-1.24-4.09-6.39,11.37-23.24,27.31-43.14,44.48-62.28,39.51-44,89.68-67.43,147.39-75.5,23.44-3.28,47-2.17,67.89,11.53C272.72,271.89,280.08,282.53,284.26,296.75Z" transform="translate(-0.05 0.04)" style="fill:#1d53a0"/><path d="M479.93,222.65c7.74-9.75,15.84-18.14,27.94-20.37,37.51-6.93,56.49,9.44,59.53,44.58,2.54,29.51.6,59.4.83,89.11,0,4-1.75,4.49-5,4.44-10-.14-20-.31-30,0-4.86.18-5.67-1.75-5.65-6,.11-25.3.23-50.62-.17-75.92-.28-17.69-11.6-26.88-28.82-24.28-11.06,1.68-18.48,12.06-18.56,26.65-.14,24.15-.25,48.3.12,72.44.09,5.89-1.52,7.49-7.29,7.18-9.28-.51-18.61-.3-27.91-.07-4,.1-5.68-.54-5.67-5.18q.25-90.9,0-181.8c0-4.43,1.44-5.47,5.61-5.35,9.77.29,19.55.31,29.32,0,4.54-.14,5.92,1.17,5.87,5.82-.25,21.59-.11,43.18-.11,64.78Z" transform="translate(-0.05 0.04)" style="fill:#1d53a0"/><path d="M1497.56,223.26c6.67-11.42,15.92-19.64,29.14-21.63,15.84-2.38,31.49-1.65,43.38,10.94,8.47,9,12.39,20.49,13.46,32.67,2.43,27.56.62,55.2,1.06,82.81.19,12.25,0,12.27-12.42,12.3-7.67,0-15.36-.27-23,.09-4.44.2-5.41-1.38-5.37-5.53.19-22.28.13-44.57.09-66.85,0-6.48,0-13-2.19-19.25-3.64-10.16-10.72-15.1-21.62-15.07-11.09,0-18.1,4.83-21.77,15a48.13,48.13,0,0,0-2.54,16.4c0,22.74-.22,45.5.15,68.24.1,6-1.76,7.37-7.42,7.08-9.51-.49-19.07-.27-28.61-.07-3.67.07-4.73-1.18-4.72-4.8q.15-63.7,0-127.43c0-3.68,1.21-4.78,4.81-4.71,10.23.19,20.47.21,30.71,0,3.84-.09,5.45.9,5.17,5-.32,4.74-.08,9.51-.08,14.27Z" transform="translate(-0.05 0.04)" style="fill:#1d53a0"/><path d="M1694.82,244.1c-3,0-6-.06-9.07,0-5.49.13-10,.82-12.33-7-2.66-8.85-19.43-10.28-25.64-3.22-5.36,6.1-3,14.61,5.25,18.06,7.51,3.13,15.64,4.2,23.55,5.95a91.7,91.7,0,0,1,17.74,6.06c31.14,13.92,27.63,53.68,4.61,68.86-22.31,14.72-58,13.11-78.21-4.33-8.64-7.48-13.09-17.19-14.54-28.42-.49-3.8,1-4.78,4.59-4.71q15,.28,30,0c3.08-.06,4.74.76,5.19,3.93,1.67,11.83,17.76,16,28.21,9.63a10.82,10.82,0,0,0,5.14-10.76c-.53-5.21-4.33-8.23-9-9.57-7.33-2.13-14.79-3.91-22.29-5.3a67.9,67.9,0,0,1-18.2-6.67c-14.13-7.13-20.37-18.72-20.14-34.43s6.41-27.58,20.5-34.42c21.93-10.63,44-10.26,65.3,1.9,10.38,5.93,16.51,15.36,18.9,27.15,1,4.8.94,8.16-5.68,7.34C1704.18,243.65,1699.47,244.11,1694.82,244.1Z" transform="translate(-0.05 0.04)" style="fill:#1d53a0"/><path d="M308.13,411.29c-.87-2-2.4-4.05-.59-6.07,1-1.18,2.39.27,3.59.6A10.14,10.14,0,0,1,308.13,411.29Z" transform="translate(-0.05 0.04)" style="fill:#0ea3e5"/><path d="M885.2,208.56c0-4.24-1.63-4.94-5.31-4.88-10.47.19-21,.35-31.42-.06-5-.23-5.85,1.76-5.61,6,.28,5.24.07,10.51.07,16.69-3.64-1.58-4-4.13-5.39-5.9-6.09-8.19-13.32-15-23.37-17.88-25.44-7.27-50.62,3.66-61.62,27.81-12.66,27.78-12.31,56.25-.88,84.39A48.31,48.31,0,0,0,772.81,339c17.75,10.1,48.31,11.07,64.66-13.13.91-1.36,1.36-4.16,3.78-3.28,1.91.69,1.74,3,1.69,4.89-.13,4.87.18,9.8-.43,14.61-3,24.3-20.23,35.34-44.23,29-13.52-3.57-24-11.78-34.08-21.1-6.86,7.71-13.28,15.37-20.22,22.55-3.22,3.32-3.11,5,.37,8.07,24.31,21.66,52.47,29.72,84.55,24.72,11.56-1.76,22.92-5.38,32.14-12,16.53-11.87,23.48-29.91,23.78-49.6C885.5,298.69,885,253.62,885.2,208.56ZM836.8,298.2c-4.68,8.83-12,13.37-21.81,13.56s-17.7-4-22.15-13c-8.58-17.3-8.91-34.81.22-52,4.57-8.61,12.46-12.37,22-12.18s16.88,4,21.59,12.8c4.28,8,5.86,16.5,6.37,25.41C842.57,281.64,841,290.19,836.8,298.2Z" transform="translate(-0.05 0.04)" style="fill:#1d53a0"/><path d="M1427,208c0-3.08-.56-4.64-4.15-4.58q-16.41.3-32.8,0c-3.68-.07-4.16,1.64-4.06,4.64.12,5,0,9.94,0,15.34-3.14-.94-3.58-2.91-4.57-4.34C1376,212,1370,205.52,1361,203c-22.38-6.29-47.44-1.47-59.38,22.18-16.45,32.55-16.22,65.65,2.44,97.55,14.06,24.06,56.4,28.16,74.06,4.65,1.26-1.66,2.47-3.36,3.68-5.06.69-.95,1.33-1.88,2.78-1.53,1.62.4,1.37,1.69,1.37,2.77,0,3.94.23,7.9,0,11.83-.2,3.34.28,5.1,4.34,5,10.69-.27,21.4-.23,32.1,0,3.86.09,4.6-1.46,4.6-4.91Q1426.92,271.76,1427,208Zm-47.18,90c-4.38,8.54-11.82,12.29-21.06,12.24-9.52-.05-16.88-4.1-21.34-12.94a53.68,53.68,0,0,1-5.66-26.2,51.11,51.11,0,0,1,4.91-24.24c4.42-9.26,12-13.93,22.22-13.92s17.8,4.83,22,14.21C1388.5,264.31,1388.44,281.33,1379.84,298.09Z" transform="translate(-0.05 0.04)" style="fill:#1d53a0"/><path d="M723.16,207.82c0-3.23-.86-4.47-4.3-4.41q-16.07.28-32.12,0c-3.35-.06-4.5,1-4.35,4.33.24,5,.06,10,.06,15l-1.74.33c-1.93-2.57-3.81-5.13-5.81-7.57-5-6-10.85-11.06-18.58-12.92-24.28-5.84-47.4.45-60.16,25.32-10.18,19.83-10.45,41-7.87,62.49a74.1,74.1,0,0,0,13.92,35.1c15.38,21.19,57.28,25.46,74.38-.66,1-1.48,1.43-4.69,4.22-3.56,2.25.91,1.63,3.62,1.63,5.62,0,3.06.17,6.06-.06,9.06-.25,3.27.85,4.46,4.27,4.4,10.7-.19,21.42-.17,32.12,0,3.31,0,4.39-.94,4.39-4.31Q723,271.93,723.16,207.82Zm-47,90.5c-4.63,8.37-11.92,12.2-21.23,12.06-9.58-.14-17.13-4.2-21.24-13.16-8.09-17.67-8.3-35.43.94-52.71,7.73-14.45,29.65-15.63,39.51-2.48,5.43,7.25,8.41,17.72,8.42,29.58A52.39,52.39,0,0,1,676.17,298.32Z" transform="translate(-0.05 0.04)" style="fill:#1d53a0"/><path d="M952.13,282.92c13.25.42,26.53.13,39.8.13,13.47,0,27-.16,40.47.13,4,.07,5.18-1.19,5-5.11-.34-7.41-.19-14.79-1.19-22.22-6.28-48.39-59.29-72.49-99.7-44.88-23.35,15.95-29.91,39.85-28.91,66.4,1.38,35.89,22.59,60.45,56.84,64.89,32.34,4.15,59.61-10.62,70.34-40.85,1.58-4.46.8-5.67-3.92-5.53-9.31.24-18.63.18-27.94,0-4-.08-6.56.68-9,4.55-5.48,8.65-16.7,12.29-27.09,9.83-11.13-2.64-17.44-10-20-20.82C945.8,285.09,946.56,282.74,952.13,282.92Zm-4.32-30.61c1-13.06,10.82-22.15,24.59-22.43,14.66-.31,24.34,7.87,25.85,21.55.44,4-.18,6-4.9,5.7-6.7-.4-13.45-.1-20.17-.1v0c-7,0-13.93-.16-20.88.07C948.62,257.19,947.52,256,947.81,252.31Z" transform="translate(-0.05 0.04)" style="fill:#1d53a0"/></g></svg>