<svg id="Laag_1" data-name="Laag 1" xmlns="http://www.w3.org/2000/svg" viewBox="0 0 308.84 409"><path d="M296.24,152.34H279.48c-4.59-.07-4.94-.37-4.94-5.07-.05-10.25-.07-20.49,0-30.74a81,81,0,0,0-.93-13.11c-5.87-38-25.06-67.33-58-87.33C199.8,6.5,182.75.71,164,.15c-16.16-.49-32,0-47.61,5.19C67.87,21.38,33.75,68.65,34.31,119c.1,9.45,0,18.89,0,28.34,0,4.7-.34,5.07-4.94,5.07-5.58,0-11.17-.06-16.76,0-8.73.1-12.51,4-12.61,12.79v164c0,14.8,0,29.54.05,44.31.09,10.88,3.8,20.2,12,27.69,5.59,5.11,12.14,7.33,19.48,7.8H277.37c3.86-.8,7.9-.56,11.58-2.53,13.3-7,19.89-18.19,19.89-33V165.13C308.84,156.29,305,152.44,296.24,152.34Zm-121.44,133c1.73,14.65,3.31,29.31,5,44,.84,7.34-2.58,11.42-10,11.57-5.2.07-10.38,0-15.57,0-5,0-10.11.08-15.16,0-7.39-.16-10.79-4.26-9.95-11.61,1.69-14.65,3.26-29.31,5-44a3.71,3.71,0,0,0-1.51-3.7c-10.29-8.86-14.2-20.2-11.25-33.27,3.06-13.56,11.93-22.14,25.43-25.76,18.76-5,39.48,9.66,41.32,28.93,1.16,12.21-2.65,22.17-11.85,30.13A3.67,3.67,0,0,0,174.8,285.36Zm43.38-131.72c-21.25-.23-42.52-.11-63.8-.11-21.53,0-43.07-.06-64.61.07-2.82,0-3.49-.76-3.44-3.51.22-11.43-.06-22.87.27-34.3C87.51,84.51,113,56.4,144,52.2c36.6-5,68.58,17.07,77,53.08a70.65,70.65,0,0,1,1.48,16.22c0,9.18-.15,18.36.08,27.53C222.65,152.45,222,153.68,218.18,153.64Z" transform="translate(0 0)" style="fill:#b4b4b4"/></svg>