<svg id="Laag_1" data-name="Laag 1" xmlns="http://www.w3.org/2000/svg" viewBox="0 0 499.55 437.03"><path d="M.06,437.23V.2H499.61v437ZM250.34,93.85q-106.82,0-213.63-.1c-4.37,0-5.54,1-5.54,5.47q.22,150.69,0,301.38c0,4.39,1,5.52,5.48,5.52q213.15-.19,426.3,0c4.37,0,5.54-1,5.54-5.47q-.22-150.69,0-301.38c0-4.39-1-5.53-5.48-5.52Q356.68,94,250.34,93.85ZM453,31.42c-4.38,0-8.76.1-13.14-.05-2.15-.07-2.77.65-2.75,2.76q.17,12.9,0,25.8c0,2.14.65,2.77,2.76,2.74q12.9-.15,25.81,0c2.14,0,2.77-.65,2.74-2.77q-.15-12.88,0-25.79c0-2.15-.64-2.82-2.76-2.75C461.45,31.52,457.23,31.42,453,31.42Z" transform="translate(-0.06 -0.2)" style="fill:#fff"/><path d="M296.49,187.5c-34.78,0-69.56-.06-104.34.07-3.62,0-5.07-.62-4.86-4.65.37-7.29.31-14.63,0-21.93-.15-3.73.8-4.84,4.71-4.81,28,.19,55.91.1,83.87.1q62.65,0,125.31-.08c3.62,0,5.07.62,4.86,4.66-.37,7.29-.31,14.62,0,21.93.15,3.73-.8,4.83-4.71,4.81C366.38,187.43,331.44,187.5,296.49,187.5Z" transform="translate(-0.06 -0.2)" style="fill:#fff"/><path d="M296.46,249.93c-34.78,0-69.57-.06-104.35.08-3.69,0-5-.73-4.82-4.69.35-7.46.29-14.95,0-22.42-.13-3.42.81-4.28,4.25-4.27,34.13.14,68.26.08,102.39.08,35.76,0,71.52.06,107.27-.08,3.7,0,5,.74,4.83,4.69-.36,7.46-.3,15,0,22.42.13,3.42-.82,4.29-4.25,4.27C366.67,249.88,331.56,249.93,296.46,249.93Z" transform="translate(-0.06 -0.2)" style="fill:#fff"/><path d="M296.17,312.36c-34.78,0-69.56-.06-104.34.09-3.61,0-4.69-.79-4.54-4.49.32-7.79.22-15.6,0-23.4-.07-2.8.83-3.47,3.54-3.47q105.79.11,211.61,0c2.73,0,3.59.7,3.53,3.48-.19,7.8-.29,15.61,0,23.4.16,3.72-1,4.49-4.55,4.48C366.39,312.3,331.28,312.36,296.17,312.36Z" transform="translate(-0.06 -0.2)" style="fill:#fff"/><path d="M125,156.28c9.26,0,18.52.1,27.77-.06,2.75-.05,3.57.73,3.51,3.5q-.25,12.17,0,24.35c.06,2.78-.79,3.5-3.52,3.49q-27.77-.18-55.54,0c-2.74,0-3.57-.74-3.51-3.5q.27-12.18,0-24.35c-.06-2.78.79-3.54,3.53-3.49C106.44,156.38,115.7,156.28,125,156.28Z" transform="translate(-0.06 -0.2)" style="fill:#fff"/><path d="M124.76,249.93c-9.26,0-18.52-.08-27.77,0-2.47,0-3.38-.52-3.33-3.19.18-8.43.12-16.88,0-25.32,0-2.07.52-2.81,2.7-2.8q28.5.12,57,0c2,0,2.86.46,2.83,2.68-.12,8.6-.15,17.21,0,25.81.05,2.64-1.15,2.81-3.22,2.79C143.6,249.89,134.18,249.93,124.76,249.93Z" transform="translate(-0.06 -0.2)" style="fill:#fff"/><path d="M125.36,281.15c9.1,0,18.19.09,27.28-.06,2.64,0,3.67.53,3.6,3.42-.2,8.27-.14,16.56,0,24.84,0,2.25-.51,3.08-2.94,3.06q-28.25-.14-56.51,0c-2.22,0-3.13-.46-3.09-2.91.14-8.44.18-16.89,0-25.33-.07-2.83,1.16-3.08,3.45-3.05C106.53,281.2,115.94,281.15,125.36,281.15Z" transform="translate(-0.06 -0.2)" style="fill:#fff"/></svg>